# xmcd
#
# Track frame offsets: 
#        150
#        17990
#        32082
#        51402
#        71372
#        87115
#        99422
#        118345
#        162697
#        179967
#
# Disc length: 2595 seconds
#
# Revision: 4
# Processed by: cddbd v1.5.2PL0 Copyright (c) Steve Scherf et al.
# Submitted via: ExactAudioCopyFreeDBPlugin 1.0
#
DISCID=900a210a
DTITLE=Various Artist - Hey Mardi Gras! (Rounder EasyDisc)
DYEAR=1997
DGENRE=Louisiana
TTITLE0=Marcia Ball - Big Shot
TTITLE1=Buckwheat Zydeco - My Feet Can't Fail Me Now
TTITLE2=Beausoleil - Maman Rosin Boudreaux
TTITLE3=ReBirth Brass Band - Big Chief
TTITLE4=Beau Jocque and the Zydeco Hi-Rollers - Beau's Mardi Gras
TTITLE5=Bo Dollis and the Wild Magnolias - Carnival Time
TTITLE6=Chuck Carbo - Hey, Mardi Gras (Here I Am)
TTITLE7=Irma Thomas - Second Line Medley:  I Done Got Over - Iko Iko -
TTITLE7=Hey Pocky Away
TTITLE8=Steve Riley and the Mamou Playboys - La danse de Mardi Gras
TTITLE9=Nathan and the Zydeco Cha Chas - Mardi Gras Zydeco
EXTD=YEAR: 1997
EXTT0=
EXTT1=
EXTT2=
EXTT3=
EXTT4=
EXTT5=
EXTT6=
EXTT7=
EXTT8=
EXTT9=
PLAYORDER=
